<svg width="21" height="20" viewBox="0 0 21 20" fill="none" xmlns="http://www.w3.org/2000/svg">
    <path d="M15.59 3.46C15.3527 3.46 15.1207 3.53038 14.9233 3.66224C14.726 3.79409 14.5722 3.98151 14.4813 4.20078C14.3905 4.42005 14.3668 4.66133 14.4131 4.89411C14.4594 5.12689 14.5736 5.34071 14.7415 5.50853C14.9093 5.67635 15.1231 5.79064 15.3559 5.83694C15.5887 5.88324 15.8299 5.85948 16.0492 5.76866C16.2685 5.67783 16.4559 5.52402 16.5878 5.32668C16.7196 5.12935 16.79 4.89734 16.79 4.66C16.79 4.34174 16.6636 4.03652 16.4385 3.81147C16.2135 3.58643 15.9083 3.46 15.59 3.46ZM20.19 5.88C20.1706 5.0503 20.0152 4.2294 19.73 3.45C19.4757 2.78313 19.08 2.17928 18.57 1.68C18.0748 1.16743 17.4696 0.774176 16.8 0.53C16.0227 0.236161 15.2008 0.07721 14.37 0.0599999C13.31 -5.58794e-08 12.97 0 10.25 0C7.53 0 7.19 -5.58794e-08 6.13 0.0599999C5.29915 0.07721 4.47734 0.236161 3.7 0.53C3.03168 0.776649 2.42693 1.16956 1.93 1.68C1.41743 2.17518 1.02418 2.78044 0.78 3.45C0.486161 4.22734 0.32721 5.04915 0.31 5.88C0.25 6.94 0.25 7.28 0.25 10C0.25 12.72 0.25 13.06 0.31 14.12C0.32721 14.9508 0.486161 15.7727 0.78 16.55C1.02418 17.2196 1.41743 17.8248 1.93 18.32C2.42693 18.8304 3.03168 19.2234 3.7 19.47C4.47734 19.7638 5.29915 19.9228 6.13 19.94C7.19 20 7.53 20 10.25 20C12.97 20 13.31 20 14.37 19.94C15.2008 19.9228 16.0227 19.7638 16.8 19.47C17.4696 19.2258 18.0748 18.8326 18.57 18.32C19.0822 17.8226 19.4783 17.2182 19.73 16.55C20.0152 15.7706 20.1706 14.9497 20.19 14.12C20.19 13.06 20.25 12.72 20.25 10C20.25 7.28 20.25 6.94 20.19 5.88ZM18.39 14C18.3827 14.6348 18.2678 15.2637 18.05 15.86C17.8903 16.2952 17.6339 16.6884 17.3 17.01C16.9756 17.3405 16.5832 17.5964 16.15 17.76C15.5537 17.9778 14.9248 18.0927 14.29 18.1C13.29 18.15 12.92 18.16 10.29 18.16C7.66 18.16 7.29 18.16 6.29 18.1C5.63089 18.1123 4.97459 18.0109 4.35 17.8C3.93578 17.6281 3.56136 17.3728 3.25 17.05C2.91809 16.7287 2.66484 16.3352 2.51 15.9C2.26586 15.2952 2.13044 14.6519 2.11 14C2.11 13 2.05 12.63 2.05 10C2.05 7.37 2.05 7 2.11 6C2.11448 5.35106 2.23295 4.70795 2.46 4.1C2.63605 3.67791 2.90627 3.30166 3.25 3C3.55381 2.65617 3.92929 2.3831 4.35 2.2C4.95955 1.98004 5.602 1.86508 6.25 1.86C7.25 1.86 7.62 1.8 10.25 1.8C12.88 1.8 13.25 1.8 14.25 1.86C14.8848 1.86728 15.5137 1.98225 16.11 2.2C16.5644 2.36865 16.9723 2.64285 17.3 3C17.6277 3.30718 17.8838 3.68273 18.05 4.1C18.2723 4.70893 18.3873 5.35178 18.39 6C18.44 7 18.45 7.37 18.45 10C18.45 12.63 18.44 13 18.39 14ZM10.25 4.87C9.23581 4.87198 8.24496 5.17453 7.40265 5.73942C6.56035 6.30431 5.90438 7.1062 5.51763 8.04375C5.13089 8.98131 5.03072 10.0125 5.22979 11.0069C5.42886 12.0014 5.91824 12.9145 6.63608 13.631C7.35392 14.3474 8.26801 14.835 9.26286 15.0321C10.2577 15.2293 11.2887 15.1271 12.2255 14.7385C13.1623 14.35 13.9629 13.6924 14.5261 12.849C15.0894 12.0056 15.39 11.0142 15.39 10C15.3913 9.3251 15.2592 8.65661 15.0012 8.03296C14.7433 7.40931 14.3646 6.84281 13.8869 6.36605C13.4092 5.88929 12.8419 5.51168 12.2178 5.25493C11.5936 4.99818 10.9249 4.86736 10.25 4.87ZM10.25 13.33C9.59139 13.33 8.94757 13.1347 8.39995 12.7688C7.85234 12.4029 7.42552 11.8828 7.17348 11.2743C6.92144 10.6659 6.8555 9.99631 6.98398 9.35035C7.11247 8.70439 7.42963 8.11104 7.89533 7.64533C8.36104 7.17963 8.95439 6.86247 9.60035 6.73398C10.2463 6.6055 10.9159 6.67144 11.5243 6.92348C12.1328 7.17552 12.6529 7.60234 13.0188 8.14995C13.3847 8.69757 13.58 9.34139 13.58 10C13.58 10.4373 13.4939 10.8703 13.3265 11.2743C13.1592 11.6784 12.9139 12.0454 12.6047 12.3547C12.2954 12.6639 11.9284 12.9092 11.5243 13.0765C11.1203 13.2439 10.6873 13.33 10.25 13.33Z" fill="black"/>
</svg>
