<svg width="23" height="20" viewBox="0 0 23 20" fill="none" xmlns="http://www.w3.org/2000/svg">
<path d="M22.2412 1.95021C22.2413 1.77357 22.1946 1.60007 22.1059 1.44735C22.0171 1.29464 21.8895 1.16817 21.736 1.08084C21.5824 0.993502 21.4085 0.948416 21.2319 0.95017C21.0552 0.951925 20.8822 1.00046 20.7305 1.09083C20.1452 1.43921 19.515 1.70601 18.8575 1.88383C17.9184 1.07806 16.7208 0.637129 15.4835 0.641636C14.126 0.643198 12.8224 1.17223 11.8477 2.11702C10.873 3.06181 10.3037 4.3484 10.2598 5.70512C7.58383 5.27838 5.15848 3.88164 3.44629 1.78126C3.34313 1.65609 3.21138 1.55757 3.06216 1.494C2.91293 1.43043 2.75061 1.40368 2.58887 1.41601C2.42723 1.42932 2.27127 1.4818 2.13447 1.56892C1.99766 1.65603 1.88414 1.77516 1.80371 1.91601C1.39124 2.63582 1.15435 3.44276 1.11226 4.27131C1.07018 5.09986 1.2241 5.92666 1.56152 6.68456L1.55957 6.68651C1.40792 6.77991 1.28277 6.91066 1.19608 7.06625C1.10939 7.22185 1.06407 7.39708 1.06445 7.57519C1.06262 7.72211 1.07143 7.86898 1.09082 8.01464C1.19296 9.2729 1.75061 10.4507 2.65918 11.3271C2.59755 11.4446 2.55993 11.5731 2.54853 11.7052C2.53712 11.8373 2.55217 11.9704 2.59277 12.0967C2.98889 13.3308 3.83127 14.3727 4.95508 15.0185C3.81333 15.46 2.5805 15.614 1.36523 15.4668C1.14031 15.4386 0.912465 15.4876 0.719083 15.6059C0.525701 15.7242 0.378261 15.9047 0.30095 16.1178C0.223638 16.3309 0.221045 16.5639 0.293596 16.7787C0.366146 16.9935 0.509533 17.1772 0.700235 17.2998C2.79033 18.646 5.22391 19.3617 7.71 19.3613C10.5293 19.393 13.28 18.4921 15.5342 16.7988C17.7885 15.1054 19.42 12.7145 20.1748 9.99801C20.5279 8.81464 20.7081 7.58648 20.71 6.35157C20.71 6.28614 20.71 6.21876 20.709 6.15138C21.2311 5.58831 21.6356 4.92668 21.8987 4.20527C22.1618 3.48387 22.2782 2.7172 22.2412 1.95021ZM18.9346 5.16212C18.7694 5.35746 18.6858 5.60891 18.7012 5.86427C18.7109 6.02927 18.71 6.19527 18.71 6.35157C18.7079 7.39511 18.555 8.43287 18.2559 9.43263C17.6394 11.744 16.265 13.7817 14.353 15.2192C12.4409 16.6568 10.1017 17.4111 7.71 17.3613C6.85088 17.3616 5.99472 17.2606 5.15922 17.0606C6.22464 16.7172 7.22081 16.1879 8.1016 15.4971C8.26383 15.3693 8.38256 15.1945 8.44149 14.9967C8.50043 14.7988 8.49669 14.5875 8.43078 14.3918C8.36487 14.1961 8.24003 14.0257 8.07338 13.9038C7.90674 13.7819 7.70645 13.7145 7.5 13.7109C6.66884 13.698 5.87513 13.363 5.28613 12.7764C5.43555 12.7481 5.58399 12.7129 5.73145 12.6709C5.94747 12.6094 6.1365 12.477 6.26812 12.295C6.39973 12.1131 6.46627 11.8921 6.45703 11.6677C6.44778 11.4433 6.36328 11.2285 6.21714 11.058C6.071 10.8874 5.87171 10.7711 5.65137 10.7275C5.16891 10.6323 4.71492 10.427 4.32469 10.1277C3.93446 9.82845 3.6185 9.44321 3.40137 9.00196C3.5821 9.02662 3.76399 9.04194 3.94629 9.04786C4.16288 9.05113 4.37489 8.98543 4.55167 8.86026C4.72845 8.73509 4.86084 8.55694 4.92969 8.35157C4.99567 8.14433 4.99228 7.92123 4.92002 7.7161C4.84777 7.51096 4.7106 7.33499 4.5293 7.21485C4.08945 6.92182 3.72915 6.52427 3.48066 6.0578C3.23217 5.59134 3.10326 5.07052 3.10547 4.54201C3.10547 4.47561 3.10742 4.4092 3.11133 4.34377C5.3526 6.43402 8.25966 7.66621 11.3203 7.82326C11.4748 7.82934 11.6287 7.80024 11.7703 7.73816C11.9119 7.67607 12.0375 7.58262 12.1377 7.46486C12.2369 7.34596 12.3071 7.20566 12.3429 7.05501C12.3786 6.90437 12.3789 6.74748 12.3437 6.5967C12.2865 6.35806 12.2574 6.11357 12.2568 5.86818C12.2577 5.01271 12.598 4.19254 13.2029 3.58764C13.8078 2.98274 14.6279 2.64251 15.4834 2.64161C15.9235 2.64043 16.3591 2.7305 16.7627 2.90615C17.1663 3.0818 17.529 3.3392 17.8281 3.66212C17.9435 3.7862 18.0886 3.87871 18.2498 3.93085C18.411 3.98299 18.5828 3.99303 18.749 3.96001C19.1598 3.88006 19.5647 3.7724 19.9609 3.63775C19.6907 4.19072 19.3453 4.70369 18.9346 5.16212Z" fill="black"/>
</svg>
